<svg width="180" height="112" viewBox="0 0 152 48" fill="none" xmlns="http://www.w3.org/2000/svg">
<path d="M152 35.851L134.801 47.3453H0V11.4975H134.801L152 0V35.851Z" fill="#000000"/>
<path d="M20.2207 28.5306V31.3112H14.6946V35.8542H11.5132V22.976H21.0892V25.7978H14.6946V28.5211L20.2207 28.5306Z" fill="#FFFFFF"/>
<path d="M23.4753 35.8542V22.976H26.6567V33.0259H33.0195V35.8446L23.4753 35.8542Z" fill="#FFFFFF"/>
<path d="M48.1852 29.4215C48.1852 33.166 45.2551 36.1024 41.3548 36.1024C37.4544 36.1024 34.5434 33.1501 34.5434 29.4215C34.5434 25.693 37.4767 22.7216 41.3579 22.7216C45.2392 22.7216 48.1852 25.6739 48.1852 29.4215ZM44.9306 29.4215C44.9306 27.395 43.4386 25.693 41.3548 25.693C39.271 25.693 37.7789 27.395 37.7789 29.4215C37.7789 31.4481 39.2741 33.1565 41.3579 33.1565C43.4417 33.1565 44.9306 31.4449 44.9306 29.4215Z" fill="#FFFFFF"/>
<path d="M64.0444 29.4215C64.0444 33.166 61.1112 36.1024 57.2108 36.1024C53.3104 36.1024 50.3995 33.1501 50.3995 29.4215C50.3995 25.693 53.3327 22.7216 57.2108 22.7216C61.0889 22.7216 64.0444 25.6739 64.0444 29.4215ZM60.7899 29.4215C60.7899 27.395 59.2946 25.693 57.2108 25.693C55.127 25.693 53.6349 27.395 53.6349 29.4215C53.6349 31.4481 55.1302 33.1565 57.2108 33.1565C59.2914 33.1565 60.7899 31.4449 60.7899 29.4215Z" fill="#FFFFFF"/>
<path d="M78.6882 29.3833C78.6882 33.2009 75.774 35.8542 71.7432 35.8542H66.5607V22.976H71.7432C75.774 22.976 78.6882 25.6165 78.6882 29.3833ZM75.4336 29.3833C75.4336 27.3949 73.827 25.8647 71.7432 25.8647H69.758V32.9782H71.7432C72.2238 32.9932 72.7026 32.9111 73.1508 32.737C73.599 32.5628 74.0075 32.3001 74.352 31.9646C74.6964 31.6291 74.9697 31.2276 75.1556 30.784C75.3414 30.3405 75.436 29.8641 75.4336 29.3833Z" fill="#FFFFFF"/>
<path d="M92.1997 35.8543L92.0661 34.3018C91.1403 35.4375 89.7946 36.1183 87.9971 36.1183C83.9695 36.1183 81.1476 33.2551 81.1476 29.552C81.1476 25.5403 84.0999 22.7216 88.0353 22.7216C91.1785 22.7216 93.9017 24.4999 94.4521 27.5668H91.1021C90.5326 26.0715 89.2474 25.658 88.0925 25.658C85.8974 25.658 84.383 27.2105 84.383 29.4756C84.383 31.499 85.8401 33.1438 88.1307 33.1438C88.805 33.1646 89.4709 32.9901 90.0483 32.6413C90.6257 32.2925 91.09 31.7842 91.3853 31.1777L87.6949 31.1395V28.623H94.5825V35.8511L92.1997 35.8543Z" fill="#FFFFFF"/>
<path d="M100.032 35.8542H96.6282L102.097 22.9124H105.142L110.591 35.8542H107.213L106.344 33.6272H100.885L100.032 35.8542ZM101.941 30.9167H105.272L103.605 26.6378L101.941 30.9167Z" fill="#FFFFFF"/>
<path d="M117.441 35.8542H114.259V25.8392H110.136V22.976H121.529V25.8392H117.441V35.8542Z" fill="#FFFFFF"/>
<path d="M132.807 28.1139V30.8403H127.109V33.0673H133.637V35.8478H123.911V22.976H133.637V25.7597H127.109V28.1043L132.807 28.1139Z" fill="#FFFFFF"/>
</svg>
